<svg id="visual" viewBox="0 0 960 540" width="960" height="540" xmlns="http://www.w3.org/2000/svg" xmlns:xlink="http://www.w3.org/1999/xlink" version="1.1"><path d="M0 287L22.8 276.2C45.7 265.3 91.3 243.7 137 240C182.7 236.3 228.3 250.7 274 284.5C319.7 318.3 365.3 371.7 411.2 368.8C457 366 503 307 548.8 284.3C594.7 261.7 640.3 275.3 686 297C731.7 318.7 777.3 348.3 823 363.2C868.7 378 914.3 378 937.2 378L960 378L960 541L937.2 541C914.3 541 868.7 541 823 541C777.3 541 731.7 541 686 541C640.3 541 594.7 541 548.8 541C503 541 457 541 411.2 541C365.3 541 319.7 541 274 541C228.3 541 182.7 541 137 541C91.3 541 45.7 541 22.8 541L0 541Z" fill="#667ae1"></path><path d="M0 408L22.8 406.5C45.7 405 91.3 402 137 414.8C182.7 427.7 228.3 456.3 274 473.2C319.7 490 365.3 495 411.2 483.7C457 472.3 503 444.7 548.8 431.3C594.7 418 640.3 419 686 414.2C731.7 409.3 777.3 398.7 823 389.7C868.7 380.7 914.3 373.3 937.2 369.7L960 366L960 541L937.2 541C914.3 541 868.7 541 823 541C777.3 541 731.7 541 686 541C640.3 541 594.7 541 548.8 541C503 541 457 541 411.2 541C365.3 541 319.7 541 274 541C228.3 541 182.7 541 137 541C91.3 541 45.7 541 22.8 541L0 541Z" fill="#a24a6f"></path></svg>