<svg id="visual" viewBox="0 0 900 450" width="900" height="450" xmlns="http://www.w3.org/2000/svg" xmlns:xlink="http://www.w3.org/1999/xlink" version="1.1"><path d="M0 239L21.5 230C43 221 86 203 128.8 199.8C171.7 196.7 214.3 208.3 257.2 236.5C300 264.7 343 309.3 385.8 307C428.7 304.7 471.3 255.3 514.2 236.3C557 217.3 600 228.7 642.8 246.8C685.7 265 728.3 290 771.2 302.5C814 315 857 315 878.5 315L900 315L900 451L878.5 451C857 451 814 451 771.2 451C728.3 451 685.7 451 642.8 451C600 451 557 451 514.2 451C471.3 451 428.7 451 385.8 451C343 451 300 451 257.2 451C214.3 451 171.7 451 128.8 451C86 451 43 451 21.5 451L0 451Z" fill="#667ae1"></path><path d="M0 340L21.5 338.7C43 337.3 86 334.7 128.8 345.3C171.7 356 214.3 380 257.2 394.2C300 408.3 343 412.7 385.8 403.2C428.7 393.7 471.3 370.3 514.2 359C557 347.7 600 348.3 642.8 344.3C685.7 340.3 728.3 331.7 771.2 324.3C814 317 857 311 878.5 308L900 305L900 451L878.5 451C857 451 814 451 771.2 451C728.3 451 685.7 451 642.8 451C600 451 557 451 514.2 451C471.3 451 428.7 451 385.8 451C343 451 300 451 257.2 451C214.3 451 171.7 451 128.8 451C86 451 43 451 21.5 451L0 451Z" fill="#5a1d9a"></path></svg>